<svg width="77" height="24" viewBox="0 0 77 24" fill="none" xmlns="http://www.w3.org/2000/svg">
<g clip-path="url(#clip0_6654_13796)">
<path d="M9.93727 8.56364V11.1273H16.1241C15.9598 12.5455 15.4671 13.6364 14.7005 14.3455C13.8245 15.2182 12.401 16.2 9.93727 16.2C6.15949 16.2 3.20298 13.1455 3.20298 9.38182C3.20298 5.61818 6.10474 2.56364 9.93727 2.56364C11.963 2.56364 13.496 3.38182 14.591 4.41818L16.3978 2.61818C14.8648 1.14545 12.7843 0 9.93727 0C4.73599 0 0.355957 4.2 0.355957 9.38182C0.355957 14.5636 4.73599 18.7636 9.93727 18.7636C12.7295 18.7636 14.8648 17.8364 16.5073 16.1455C18.2046 14.4545 18.7521 12.0545 18.7521 10.1455C18.7521 9.54546 18.6973 9 18.6426 8.56364H9.93727Z" fill="#4285F4"/>
<path d="M26.4172 6.43637C23.0774 6.43637 20.2852 9.00001 20.2852 12.4909C20.2852 15.9818 23.0227 18.5455 26.4172 18.5455C29.8117 18.5455 32.5492 16.0364 32.5492 12.5455C32.5492 9.00001 29.8117 6.43637 26.4172 6.43637ZM26.4172 16.2C24.5557 16.2 22.9679 14.6727 22.9679 12.5455C22.9679 10.3636 24.5557 8.89092 26.4172 8.89092C28.2787 8.89092 29.8665 10.3636 29.8665 12.5455C29.8665 14.6727 28.2787 16.2 26.4172 16.2Z" fill="#EA4335"/>
<path d="M56.3654 7.80001H56.2558C55.6536 7.09092 54.5038 6.43637 53.0256 6.43637C49.9596 6.43637 47.3315 9.05455 47.3315 12.4909C47.3315 15.8727 49.9596 18.5455 53.0256 18.5455C54.5038 18.5455 55.6536 17.8909 56.2558 17.1818H56.3654V18.0546C56.3654 20.3455 55.1061 21.6 53.1351 21.6C51.4926 21.6 50.5071 20.4546 50.0691 19.4182L47.7695 20.4C48.4265 21.9818 50.2333 24 53.1898 24C56.3106 24 58.9934 22.1455 58.9934 17.6727V6.76364H56.4749V7.80001H56.3654ZM53.2993 16.2C51.4378 16.2 50.0691 14.6182 50.0691 12.5455C50.0691 10.4182 51.4926 8.89092 53.2993 8.89092C55.1061 8.89092 56.5296 10.4727 56.5296 12.6C56.5844 14.6727 55.1608 16.2 53.2993 16.2Z" fill="#4285F4"/>
<path d="M40.05 6.43637C36.7102 6.43637 33.918 9.00001 33.918 12.4909C33.918 15.9818 36.6555 18.5455 40.05 18.5455C43.4445 18.5455 46.182 16.0364 46.182 12.5455C46.182 9.00001 43.4445 6.43637 40.05 6.43637ZM40.05 16.2C38.1885 16.2 36.6007 14.6727 36.6007 12.5455C36.6007 10.3636 38.1885 8.89092 40.05 8.89092C41.9115 8.89092 43.4993 10.3636 43.4993 12.5455C43.4993 14.6727 41.9115 16.2 40.05 16.2Z" fill="#FBBC05"/>
<path d="M61.0195 0.272736H63.6475V18.6H61.0195V0.272736Z" fill="#34A853"/>
<path d="M71.7501 16.2C70.3813 16.2 69.4506 15.6 68.7936 14.3455L76.9514 11.0182L76.6776 10.3091C76.1849 8.94546 74.5971 6.43637 71.4763 6.43637C68.3556 6.43637 65.7275 8.89092 65.7275 12.4909C65.7275 15.8727 68.3008 18.5455 71.7501 18.5455C74.5423 18.5455 76.1301 16.8546 76.8419 15.8727L74.7613 14.5091C74.0496 15.5455 73.1188 16.2 71.7501 16.2ZM71.5858 8.72728C72.6808 8.72728 73.6116 9.27273 73.8853 10.0364L68.4103 12.3273C68.3556 9.81819 70.2171 8.72728 71.5858 8.72728Z" fill="#EA4335"/>
</g>
<defs>
<clipPath id="clip0_6654_13796">
<rect width="76.5957" height="24" fill="white" transform="translate(0.355957)"/>
</clipPath>
</defs>
</svg>
